<mxfile host="app.diagrams.net" modified="2023-10-04T01:51:14.576Z" agent="Mozilla/5.0 (Windows NT 10.0; Win64; x64) AppleWebKit/537.36 (KHTML, like Gecko) Chrome/117.0.0.0 Safari/537.36" etag="1wJ1E4OrvlmIoETScl40" version="22.0.2" type="github">
  <diagram name="Halaman-1" id="IlQlq5681_s7ufQ-nlGt">
    <mxGraphModel dx="629" dy="1505" grid="1" gridSize="10" guides="1" tooltips="1" connect="1" arrows="1" fold="1" page="1" pageScale="1" pageWidth="827" pageHeight="1169" math="0" shadow="0">
      <root>
        <mxCell id="0" />
        <mxCell id="1" parent="0" />
        <mxCell id="JFsyuu90wR7gRP7UJsE2-22" style="edgeStyle=none;rounded=0;orthogonalLoop=1;jettySize=auto;html=1;exitX=0.5;exitY=1;exitDx=0;exitDy=0;entryX=0.75;entryY=0;entryDx=0;entryDy=0;" edge="1" parent="1" source="JFsyuu90wR7gRP7UJsE2-1" target="JFsyuu90wR7gRP7UJsE2-5">
          <mxGeometry relative="1" as="geometry" />
        </mxCell>
        <mxCell id="JFsyuu90wR7gRP7UJsE2-1" value="input" style="shape=parallelogram;perimeter=parallelogramPerimeter;whiteSpace=wrap;html=1;fixedSize=1;" vertex="1" parent="1">
          <mxGeometry x="175" y="95" width="155" height="60" as="geometry" />
        </mxCell>
        <mxCell id="JFsyuu90wR7gRP7UJsE2-2" value="" style="rounded=1;whiteSpace=wrap;html=1;" vertex="1" parent="1">
          <mxGeometry x="180" y="-10" width="120" height="60" as="geometry" />
        </mxCell>
        <mxCell id="JFsyuu90wR7gRP7UJsE2-3" value="START" style="text;html=1;strokeColor=none;fillColor=none;align=center;verticalAlign=middle;whiteSpace=wrap;rounded=0;" vertex="1" parent="1">
          <mxGeometry x="210" y="5" width="60" height="30" as="geometry" />
        </mxCell>
        <mxCell id="JFsyuu90wR7gRP7UJsE2-9" value="" style="edgeStyle=none;rounded=0;orthogonalLoop=1;jettySize=auto;html=1;" edge="1" parent="1" source="JFsyuu90wR7gRP7UJsE2-5" target="JFsyuu90wR7gRP7UJsE2-8">
          <mxGeometry relative="1" as="geometry" />
        </mxCell>
        <mxCell id="JFsyuu90wR7gRP7UJsE2-5" value="tebakan" style="rounded=0;whiteSpace=wrap;html=1;" vertex="1" parent="1">
          <mxGeometry x="173.75" y="190" width="105" height="40" as="geometry" />
        </mxCell>
        <mxCell id="JFsyuu90wR7gRP7UJsE2-6" style="edgeStyle=none;rounded=0;orthogonalLoop=1;jettySize=auto;html=1;exitX=0.5;exitY=1;exitDx=0;exitDy=0;" edge="1" parent="1" source="JFsyuu90wR7gRP7UJsE2-2">
          <mxGeometry relative="1" as="geometry">
            <mxPoint x="240" y="90" as="targetPoint" />
          </mxGeometry>
        </mxCell>
        <mxCell id="JFsyuu90wR7gRP7UJsE2-47" value="" style="edgeStyle=none;rounded=0;orthogonalLoop=1;jettySize=auto;html=1;" edge="1" parent="1" source="JFsyuu90wR7gRP7UJsE2-8" target="JFsyuu90wR7gRP7UJsE2-46">
          <mxGeometry relative="1" as="geometry">
            <Array as="points">
              <mxPoint x="388" y="325" />
            </Array>
          </mxGeometry>
        </mxCell>
        <mxCell id="JFsyuu90wR7gRP7UJsE2-48" value="false" style="edgeLabel;html=1;align=center;verticalAlign=middle;resizable=0;points=[];" vertex="1" connectable="0" parent="JFsyuu90wR7gRP7UJsE2-47">
          <mxGeometry x="-0.1032" relative="1" as="geometry">
            <mxPoint as="offset" />
          </mxGeometry>
        </mxCell>
        <mxCell id="JFsyuu90wR7gRP7UJsE2-57" value="true" style="edgeStyle=none;rounded=0;orthogonalLoop=1;jettySize=auto;html=1;exitX=0.5;exitY=1;exitDx=0;exitDy=0;entryX=0.5;entryY=0;entryDx=0;entryDy=0;" edge="1" parent="1" source="JFsyuu90wR7gRP7UJsE2-8" target="JFsyuu90wR7gRP7UJsE2-20">
          <mxGeometry relative="1" as="geometry" />
        </mxCell>
        <mxCell id="JFsyuu90wR7gRP7UJsE2-8" value="if (angka == tebakan)" style="rhombus;whiteSpace=wrap;html=1;" vertex="1" parent="1">
          <mxGeometry x="176.25" y="280" width="102.5" height="90" as="geometry" />
        </mxCell>
        <mxCell id="JFsyuu90wR7gRP7UJsE2-54" value="true" style="edgeStyle=none;rounded=0;orthogonalLoop=1;jettySize=auto;html=1;" edge="1" parent="1" source="JFsyuu90wR7gRP7UJsE2-14" target="JFsyuu90wR7gRP7UJsE2-53">
          <mxGeometry relative="1" as="geometry" />
        </mxCell>
        <mxCell id="JFsyuu90wR7gRP7UJsE2-14" value="if (angka &amp;lt; tebakan)" style="rhombus;whiteSpace=wrap;html=1;" vertex="1" parent="1">
          <mxGeometry x="348.75" y="520" width="80" height="80" as="geometry" />
        </mxCell>
        <mxCell id="JFsyuu90wR7gRP7UJsE2-43" value="" style="edgeStyle=none;rounded=0;orthogonalLoop=1;jettySize=auto;html=1;" edge="1" parent="1" source="JFsyuu90wR7gRP7UJsE2-20" target="JFsyuu90wR7gRP7UJsE2-42">
          <mxGeometry relative="1" as="geometry" />
        </mxCell>
        <mxCell id="JFsyuu90wR7gRP7UJsE2-20" value="tebakan benar" style="shape=parallelogram;perimeter=parallelogramPerimeter;whiteSpace=wrap;html=1;fixedSize=1;" vertex="1" parent="1">
          <mxGeometry x="166.25" y="690" width="120" height="60" as="geometry" />
        </mxCell>
        <mxCell id="JFsyuu90wR7gRP7UJsE2-36" value="" style="endArrow=classic;html=1;rounded=0;entryX=1;entryY=0.5;entryDx=0;entryDy=0;exitX=1;exitY=0.5;exitDx=0;exitDy=0;" edge="1" parent="1" source="JFsyuu90wR7gRP7UJsE2-49" target="JFsyuu90wR7gRP7UJsE2-5">
          <mxGeometry width="50" height="50" relative="1" as="geometry">
            <mxPoint x="436.4599999999999" y="499.6199999999999" as="sourcePoint" />
            <mxPoint x="270" y="390" as="targetPoint" />
            <Array as="points">
              <mxPoint x="740" y="408" />
              <mxPoint x="740" y="210" />
            </Array>
          </mxGeometry>
        </mxCell>
        <mxCell id="JFsyuu90wR7gRP7UJsE2-42" value="FINISH" style="rounded=1;whiteSpace=wrap;html=1;" vertex="1" parent="1">
          <mxGeometry x="488.75" y="692.5" width="108.75" height="57.5" as="geometry" />
        </mxCell>
        <mxCell id="JFsyuu90wR7gRP7UJsE2-50" value="" style="edgeStyle=none;rounded=0;orthogonalLoop=1;jettySize=auto;html=1;" edge="1" parent="1" source="JFsyuu90wR7gRP7UJsE2-46" target="JFsyuu90wR7gRP7UJsE2-49">
          <mxGeometry relative="1" as="geometry" />
        </mxCell>
        <mxCell id="JFsyuu90wR7gRP7UJsE2-51" value="true" style="edgeLabel;html=1;align=center;verticalAlign=middle;resizable=0;points=[];" vertex="1" connectable="0" parent="JFsyuu90wR7gRP7UJsE2-50">
          <mxGeometry x="-0.256" relative="1" as="geometry">
            <mxPoint as="offset" />
          </mxGeometry>
        </mxCell>
        <mxCell id="JFsyuu90wR7gRP7UJsE2-52" style="edgeStyle=none;rounded=0;orthogonalLoop=1;jettySize=auto;html=1;exitX=0.5;exitY=1;exitDx=0;exitDy=0;entryX=0.5;entryY=0;entryDx=0;entryDy=0;" edge="1" parent="1" source="JFsyuu90wR7gRP7UJsE2-46" target="JFsyuu90wR7gRP7UJsE2-14">
          <mxGeometry relative="1" as="geometry" />
        </mxCell>
        <mxCell id="JFsyuu90wR7gRP7UJsE2-46" value="if (angka &amp;gt; tebakan)" style="rhombus;whiteSpace=wrap;html=1;" vertex="1" parent="1">
          <mxGeometry x="347.5" y="370" width="80" height="80" as="geometry" />
        </mxCell>
        <mxCell id="JFsyuu90wR7gRP7UJsE2-49" value="angka lebih kecil" style="shape=parallelogram;perimeter=parallelogramPerimeter;whiteSpace=wrap;html=1;fixedSize=1;" vertex="1" parent="1">
          <mxGeometry x="500" y="378" width="120" height="60" as="geometry" />
        </mxCell>
        <mxCell id="JFsyuu90wR7gRP7UJsE2-53" value="angka lebih besar" style="shape=parallelogram;perimeter=parallelogramPerimeter;whiteSpace=wrap;html=1;fixedSize=1;" vertex="1" parent="1">
          <mxGeometry x="488.75" y="530" width="120" height="60" as="geometry" />
        </mxCell>
        <mxCell id="JFsyuu90wR7gRP7UJsE2-56" value="" style="endArrow=classic;html=1;rounded=0;entryX=1;entryY=0.5;entryDx=0;entryDy=0;exitX=1;exitY=0.5;exitDx=0;exitDy=0;" edge="1" parent="1" source="JFsyuu90wR7gRP7UJsE2-53" target="JFsyuu90wR7gRP7UJsE2-5">
          <mxGeometry width="50" height="50" relative="1" as="geometry">
            <mxPoint x="620" y="568" as="sourcePoint" />
            <mxPoint x="289" y="370" as="targetPoint" />
            <Array as="points">
              <mxPoint x="740" y="570" />
              <mxPoint x="740" y="210" />
            </Array>
          </mxGeometry>
        </mxCell>
        <mxCell id="JFsyuu90wR7gRP7UJsE2-58" style="edgeStyle=none;rounded=0;orthogonalLoop=1;jettySize=auto;html=1;exitX=0;exitY=1;exitDx=0;exitDy=0;entryX=0.872;entryY=-0.017;entryDx=0;entryDy=0;entryPerimeter=0;" edge="1" parent="1" source="JFsyuu90wR7gRP7UJsE2-14" target="JFsyuu90wR7gRP7UJsE2-20">
          <mxGeometry relative="1" as="geometry" />
        </mxCell>
        <mxCell id="JFsyuu90wR7gRP7UJsE2-66" value="" style="edgeStyle=none;rounded=0;orthogonalLoop=1;jettySize=auto;html=1;" edge="1" parent="1" source="JFsyuu90wR7gRP7UJsE2-59" target="JFsyuu90wR7gRP7UJsE2-65">
          <mxGeometry relative="1" as="geometry" />
        </mxCell>
        <mxCell id="JFsyuu90wR7gRP7UJsE2-59" value="start" style="rounded=1;whiteSpace=wrap;html=1;" vertex="1" parent="1">
          <mxGeometry x="320" y="1230" width="120" height="60" as="geometry" />
        </mxCell>
        <mxCell id="JFsyuu90wR7gRP7UJsE2-76" value="" style="edgeStyle=none;rounded=0;orthogonalLoop=1;jettySize=auto;html=1;" edge="1" parent="1" source="JFsyuu90wR7gRP7UJsE2-65" target="JFsyuu90wR7gRP7UJsE2-75">
          <mxGeometry relative="1" as="geometry" />
        </mxCell>
        <mxCell id="JFsyuu90wR7gRP7UJsE2-65" value="input balok" style="shape=parallelogram;perimeter=parallelogramPerimeter;whiteSpace=wrap;html=1;fixedSize=1;rounded=1;" vertex="1" parent="1">
          <mxGeometry x="320" y="1370" width="120" height="60" as="geometry" />
        </mxCell>
        <mxCell id="JFsyuu90wR7gRP7UJsE2-70" value="true" style="edgeStyle=none;rounded=0;orthogonalLoop=1;jettySize=auto;html=1;" edge="1" parent="1" source="JFsyuu90wR7gRP7UJsE2-67" target="JFsyuu90wR7gRP7UJsE2-69">
          <mxGeometry relative="1" as="geometry" />
        </mxCell>
        <mxCell id="JFsyuu90wR7gRP7UJsE2-72" value="false" style="edgeStyle=none;rounded=0;orthogonalLoop=1;jettySize=auto;html=1;" edge="1" parent="1" source="JFsyuu90wR7gRP7UJsE2-67" target="JFsyuu90wR7gRP7UJsE2-71">
          <mxGeometry relative="1" as="geometry" />
        </mxCell>
        <mxCell id="JFsyuu90wR7gRP7UJsE2-67" value="if (balok == segitiga)" style="rhombus;whiteSpace=wrap;html=1;rounded=1;" vertex="1" parent="1">
          <mxGeometry x="100" y="1850" width="120" height="100" as="geometry" />
        </mxCell>
        <mxCell id="JFsyuu90wR7gRP7UJsE2-69" value="&amp;nbsp;berubah ke bulat" style="shape=parallelogram;perimeter=parallelogramPerimeter;whiteSpace=wrap;html=1;fixedSize=1;rounded=1;" vertex="1" parent="1">
          <mxGeometry x="80" y="2000" width="120" height="60" as="geometry" />
        </mxCell>
        <mxCell id="JFsyuu90wR7gRP7UJsE2-74" value="true" style="edgeStyle=none;rounded=0;orthogonalLoop=1;jettySize=auto;html=1;" edge="1" parent="1" source="JFsyuu90wR7gRP7UJsE2-71" target="JFsyuu90wR7gRP7UJsE2-73">
          <mxGeometry relative="1" as="geometry" />
        </mxCell>
        <mxCell id="JFsyuu90wR7gRP7UJsE2-71" value="if (balok == lingkaran)" style="rhombus;whiteSpace=wrap;html=1;rounded=1;" vertex="1" parent="1">
          <mxGeometry x="30" y="1750" width="120" height="100" as="geometry" />
        </mxCell>
        <mxCell id="JFsyuu90wR7gRP7UJsE2-73" value="tidak berubah" style="shape=parallelogram;perimeter=parallelogramPerimeter;whiteSpace=wrap;html=1;fixedSize=1;rounded=1;" vertex="1" parent="1">
          <mxGeometry y="1640" width="120" height="60" as="geometry" />
        </mxCell>
        <mxCell id="JFsyuu90wR7gRP7UJsE2-79" value="" style="edgeStyle=none;rounded=0;orthogonalLoop=1;jettySize=auto;html=1;" edge="1" parent="1" source="JFsyuu90wR7gRP7UJsE2-75" target="JFsyuu90wR7gRP7UJsE2-78">
          <mxGeometry relative="1" as="geometry" />
        </mxCell>
        <mxCell id="JFsyuu90wR7gRP7UJsE2-75" value="pilih lorong" style="shape=parallelogram;perimeter=parallelogramPerimeter;whiteSpace=wrap;html=1;fixedSize=1;rounded=1;" vertex="1" parent="1">
          <mxGeometry x="320" y="1470" width="120" height="60" as="geometry" />
        </mxCell>
        <mxCell id="JFsyuu90wR7gRP7UJsE2-78" value="if (lorong == 1)" style="rhombus;whiteSpace=wrap;html=1;rounded=1;" vertex="1" parent="1">
          <mxGeometry x="315" y="1600" width="130" height="100" as="geometry" />
        </mxCell>
      </root>
    </mxGraphModel>
  </diagram>
</mxfile>
